<svg xmlns="http://www.w3.org/2000/svg" viewBox="0 0 17.981 14.12"><defs><style>.cls-2{fill:none}.cls-4,.cls-5{stroke:none}.cls-5{fill:#bcbcbc}</style><clipPath id="clip-path"><path id="Rectangle_180" d="M0 0h17.981v6.067H0z" data-name="Rectangle 180" fill="#fff" stroke="#707070"/></clipPath></defs><g id="an-navigator-user" transform="translate(-1583.367 -16.513)"><g id="Path_779" class="cls-2" data-name="Path 779"><path d="M4.247 0A4.247 4.247 0 1 1 0 4.247 4.247 4.247 0 0 1 4.247 0z" class="cls-4" transform="translate(1588.331 16.513)"/><path d="M4.247 2A2.25 2.25 0 0 0 2 4.247a2.25 2.25 0 0 0 2.247 2.247 2.25 2.25 0 0 0 2.247-2.247A2.25 2.25 0 0 0 4.247 2m0-2a4.247 4.247 0 1 1 0 8.494 4.247 4.247 0 0 1 0-8.494z" class="cls-5" transform="translate(1588.331 16.513)"/></g><g id="Mask_Group_1" data-name="Mask Group 1" transform="translate(1583.367 24.566)" clip-path="url(#clip-path)"><g id="Path_778" class="cls-2" data-name="Path 778"><path d="M6.674 0A6.674 6.674 0 1 1 0 6.674 6.674 6.674 0 0 1 6.674 0z" class="cls-4" transform="translate(2.537 -.331)"/><path d="M6.674 2A4.68 4.68 0 0 0 2 6.674a4.68 4.68 0 0 0 4.674 4.674 4.68 4.68 0 0 0 4.674-4.674A4.68 4.68 0 0 0 6.674 2m0-2a6.674 6.674 0 1 1 0 13.348A6.674 6.674 0 0 1 6.674 0z" class="cls-5" transform="translate(2.537 -.331)"/></g></g></g></svg>