<svg xmlns="http://www.w3.org/2000/svg" id="an-wifire-logo" viewBox="0 0 118.997 21.5"><defs><style>.cls-1{fill:#ec6608}</style></defs><path id="Path_1" d="M20.953 14.483L16.175 0h-3.086L8.311 14.532 3.633 0H0l7.017 21.5h2.638l4.927-15.229L19.559 21.5H22.2L29.214 0h-3.583z" class="cls-1" data-name="Path 1"/><path id="Path_2" d="M94.3 21.5h3.633v-9.755h8.167V8.311h-8.167V3.434h11.347V0H94.3z" class="cls-1" data-name="Path 2" transform="translate(-47.368)"/><path id="Path_3" d="M177.272 10.352a6.327 6.327 0 0 0 1.443-4.131 5.819 5.819 0 0 0-1.891-4.579A7.414 7.414 0 0 0 171.748 0H160.6v21.5h3.633v-8.958h5.972l5.076 8.909h4.081l-5.176-9.157a5.5 5.5 0 0 0 3.086-1.941m-2.289-4.081a2.533 2.533 0 0 1-.8 2.09 3.685 3.685 0 0 1-2.538.7h-7.366V3.434h7.521a3.663 3.663 0 0 1 2.439.747 2.826 2.826 0 0 1 .746 2.09" class="cls-1" data-name="Path 3" transform="translate(-80.672)"/><path id="Path_4" d="M212.533 18.066v-6.321h8.167V8.311h-8.162V3.434h10.949V0H208.9v21.5h15.03v-3.434z" class="cls-1" data-name="Path 4" transform="translate(-104.934)"/><path id="Path_5" d="M136.9 3.434h1.294v14.632H136.9V21.5h4.977V0H136.9z" class="cls-1" data-name="Path 5" transform="translate(-68.767)"/><path id="Path_6" d="M69.7 21.5h4.927v-3.434h-1.294V3.434h1.294V0H69.7z" class="cls-1" data-name="Path 6" transform="translate(-35.011)"/></svg>