<svg xmlns="http://www.w3.org/2000/svg" viewBox="0 0 46 46"><g transform="translate(.104)"><rect width="46" height="46" data-name="Rectangle 71" rx="23" transform="translate(-.104)" fill="#333"/><path d="M16.997 13.319a2.594 2.594 0 0 1 .829.329q5.408 3.04 10.82 6.078-1.313 1.309-2.623 2.621-4.517-4.515-9.026-9.028zm-1.1 1.12v16.718a1.438 1.438 0 0 0 .378.932q4.651-4.644 9.3-9.294l-9.29-9.29a1.344 1.344 0 0 0-.388.934zm10.569 8.356l2.75 2.75q1.7-.957 3.4-1.91a1.108 1.108 0 0 0 .582-.837 1.106 1.106 0 0 0-.586-.844q-1.7-.956-3.4-1.908l-2.75 2.75zm-9.469 9.476q4.5-4.521 9.021-9.029l2.623 2.622q-5.431 3.055-10.866 6.103a2.509 2.509 0 0 1-.778.304z" data-name="Path 155" fill="#fff" fill-rule="evenodd"/></g></svg>