<svg xmlns="http://www.w3.org/2000/svg" viewBox="0 0 22.996 20.032"><defs><style>.cls-1{fill:none;stroke:#fd8440;stroke-miterlimit:10;stroke-width:2px}</style></defs><g id="an-navigator-tv" transform="translate(1 .488)"><path id="Path_775" d="M3.1 20.383h16.8a2.1 2.1 0 0 0 2.1-2.1V7.084a2.1 2.1 0 0 0-2.1-2.1H3.1a2.1 2.1 0 0 0-2.1 2.1v11.2a2.1 2.1 0 0 0 2.1 2.099z" class="cls-1" data-name="Path 775" transform="translate(-1 -1.838)"/><path id="Line_59" d="M0 0l1.759 3.148" class="cls-1" data-name="Line 59" transform="translate(6.639)"/><path id="Line_60" d="M1.759 0L0 3.148" class="cls-1" data-name="Line 60" transform="translate(12.597)"/><path id="Path_776" d="M19 14.021l-6.593-3.746-.407.251v7.493l.405.251L19 14.522z" class="cls-1" data-name="Path 776" transform="translate(-4.302 -3.426)"/></g></svg>