<svg xmlns="http://www.w3.org/2000/svg" viewBox="0 0 20 20"><g data-name="Group 2"><path d="M11.148 19.5h-2.3a.885.885 0 0 1-.884-.8l-.232-1.41a7.614 7.614 0 0 1-1.283-.532l-1.181.842a.87.87 0 0 1-.546.189.882.882 0 0 1-.628-.261L2.47 15.906a.885.885 0 0 1-.059-1.191l.831-1.164a7.592 7.592 0 0 1-.532-1.283l-1.431-.239a.878.878 0 0 1-.779-.881v-2.3a.885.885 0 0 1 .8-.884l1.41-.232a7.614 7.614 0 0 1 .532-1.282L2.4 5.268a.877.877 0 0 1 .07-1.174L4.094 2.47a.91.91 0 0 1 1.19-.06l1.166.832a7.572 7.572 0 0 1 1.282-.532l.239-1.431A.879.879 0 0 1 8.852.5h2.3a.886.886 0 0 1 .884.8l.236 1.412a7.6 7.6 0 0 1 1.282.532l1.178-.844a.87.87 0 0 1 .545-.188.882.882 0 0 1 .628.26l1.624 1.624a.885.885 0 0 1 .06 1.19l-.832 1.165a7.568 7.568 0 0 1 .532 1.282l1.432.239a.879.879 0 0 1 .779.88v2.3a.883.883 0 0 1-.8.883l-1.41.236a7.586 7.586 0 0 1-.532 1.283l.844 1.181a.879.879 0 0 1-.073 1.174l-1.623 1.623a.91.91 0 0 1-1.191.059l-1.164-.831a7.584 7.584 0 0 1-1.282.532l-.239 1.432a.879.879 0 0 1-.882.776zm-4.721-3.426a.311.311 0 0 1 .154.04 7 7 0 0 0 1.515.629.314.314 0 0 1 .224.251l.27 1.625a.269.269 0 0 0 .262.254h2.3a.262.262 0 0 0 .259-.233l.274-1.646a.314.314 0 0 1 .224-.25 6.994 6.994 0 0 0 1.514-.629.313.313 0 0 1 .336.019l1.341.958a.257.257 0 0 0 .365-.005l1.624-1.624a.259.259 0 0 0 .018-.349l-.971-1.357a.314.314 0 0 1-.019-.336 6.918 6.918 0 0 0 .628-1.514.314.314 0 0 1 .251-.224l1.625-.271a.268.268 0 0 0 .254-.261v-2.3a.262.262 0 0 0-.233-.259l-1.649-.272a.314.314 0 0 1-.251-.224 6.914 6.914 0 0 0-.628-1.513.314.314 0 0 1 .019-.336l.958-1.347a.266.266 0 0 0-.006-.364l-1.624-1.621a.266.266 0 0 0-.348-.018l-1.358.971a.314.314 0 0 1-.336.019 6.978 6.978 0 0 0-1.514-.629.314.314 0 0 1-.224-.251l-.27-1.624a.267.267 0 0 0-.262-.255h-2.3a.259.259 0 0 0-.259.233l-.271 1.646a.314.314 0 0 1-.224.251 6.945 6.945 0 0 0-1.514.629.314.314 0 0 1-.336-.019L4.9 2.909a.258.258 0 0 0-.365.006L2.914 4.538a.258.258 0 0 0-.017.348l.97 1.359a.314.314 0 0 1 .019.336 6.974 6.974 0 0 0-.629 1.514.314.314 0 0 1-.251.224l-1.624.27a.266.266 0 0 0-.254.262v2.3a.258.258 0 0 0 .233.258l1.646.274a.314.314 0 0 1 .251.224 7 7 0 0 0 .629 1.515.313.313 0 0 1-.019.336L2.909 15.1a.266.266 0 0 0 0 .365l1.624 1.624a.265.265 0 0 0 .348.018l1.358-.97a.316.316 0 0 1 .188-.063zM10 13.758A3.759 3.759 0 1 1 13.759 10 3.763 3.763 0 0 1 10 13.758zm0-6.889A3.131 3.131 0 1 0 13.131 10 3.135 3.135 0 0 0 10 6.869z" data-name="Path 7" fill="#fff" stroke="#333"/></g></svg>