<svg width="20" height="20" xmlns="http://www.w3.org/2000/svg" xmlns:xlink="http://www.w3.org/1999/xlink"><defs><path d="M10 2c4.413 0 8 3.587 8 8s-3.587 8-8 8-8-3.587-8-8 3.587-8 8-8zm.028 13c.278 0 .528-.081.666-.297A.969.969 0 0 0 11 14c0-.27-.083-.514-.306-.703A1.008 1.008 0 0 0 10 13c-.25 0-.472.108-.694.297A.969.969 0 0 0 9 14c0 .27.111.514.306.703.194.189.444.297.722.297zM9 5v6h2V5H9z" id="a"/></defs><g fill="none" fill-rule="evenodd"><mask id="b" fill="#fff"><use xlink:href="#a"/></mask><use fill="#333" fill-rule="nonzero" xlink:href="#a"/><g mask="url(#b)" fill="#333"><path d="M0 0h20v20H0z"/></g></g></svg>