<svg xmlns="http://www.w3.org/2000/svg" viewBox="0 0 46 46"><rect width="46" height="46" data-name="Rectangle 70" rx="23" fill="#333"/><path d="M22.38 15.745a4.7 4.7 0 0 1 4.434-4.917c.036 2.427-1.855 4.991-4.434 4.917zm-6.99 1.883a5.167 5.167 0 0 1 3.919-1.621c1.19.072 2.207.853 3.385.926 1.209-.276 2.311-1.007 3.583-1a4.941 4.941 0 0 1 4.324 2.14 4.9 4.9 0 0 0-2.283 3.9 4.671 4.671 0 0 0 2.876 4.485 13.027 13.027 0 0 1-2.627 4.565 3.139 3.139 0 0 1-2.29 1.121 7.991 7.991 0 0 1-2.267-.7 4.753 4.753 0 0 0-1.967-.08c-1 .192-1.9.907-2.955.781a3.031 3.031 0 0 1-1.893-1.093 13.446 13.446 0 0 1-3.5-8.245 6.86 6.86 0 0 1 1.695-5.179z" fill="#fff" fill-rule="evenodd"/></svg>